<svg xmlns="http://www.w3.org/2000/svg" viewBox="0 0 48 48" fill="none" aria-hidden="true">
  <!-- Light mode -->
  <rect x="3.5" y="4.5" width="41" height="39" rx="5" stroke="#152036" stroke-width="1.75"/>
  <path d="M3.5 13.5h41" stroke="#152036" stroke-width="1.75"/>
  <circle cx="9.5" cy="9" r="1.4" fill="#152036"/>
  <circle cx="14.5" cy="9" r="1.4" fill="#152036"/>
  <circle cx="19.5" cy="9" r="1.4" fill="#152036"/>
  <rect x="26" y="8.2" width="12.5" height="1.6" rx="0.8" fill="#152036"/>

  <!-- Antennas -->
  <path d="M15 22V16.2" stroke="#152036" stroke-width="1.7" stroke-linecap="round"/>
  <path d="M33 22V16.2" stroke="#152036" stroke-width="1.7" stroke-linecap="round"/>

  <!-- Head + cheek pads -->
  <circle cx="24" cy="27.2" r="8.1" stroke="#152036" stroke-width="1.8"/>
  <circle cx="15.2" cy="27.2" r="2.35" stroke="#152036" stroke-width="1.7"/>
  <circle cx="32.8" cy="27.2" r="2.35" stroke="#152036" stroke-width="1.7"/>

  <!-- Arched robot eyes (∩) -->
  <path d="M18.6 26.6a2.55 2.55 0 0 1 5.1 0" stroke="#152036" stroke-width="1.7" stroke-linecap="round"/>
  <path d="M24.3 26.6a2.55 2.55 0 0 1 5.1 0" stroke="#152036" stroke-width="1.7" stroke-linecap="round"/>

  <!-- Mouth bar -->
  <rect x="19.4" y="29.5" width="9.2" height="3.3" rx="1.5" stroke="#152036" stroke-width="1.5"/>

  <!-- Shoulders -->
  <path d="M12.8 43.5c1.7-4.2 5.2-6.9 11.2-6.9s9.5 2.7 11.2 6.9" stroke="#152036" stroke-width="1.8" stroke-linecap="round"/>
</svg>
