<svg xmlns="http://www.w3.org/2000/svg" viewBox="0 0 96 96" id="bot">
  <path d="M90.37 9.66H5.7A5.68 5.68 0 0 0 0 15.32v65.34a5.68 5.68 0 0 0 5.7 5.66h84.67A5.67 5.67 0 0 0 96 80.66V15.32a5.67 5.67 0 0 0-5.63-5.66ZM2 15.32a3.67 3.67 0 0 1 3.7-3.66h84.67A3.66 3.66 0 0 1 94 15.32v6.17H2Zm31.17 69h-8.49a25.89 25.89 0 0 1 8.52-10.19Zm2 0V72.84l.23-.13a25.74 25.74 0 0 1 25.14 0l.22.13v11.48Zm10.57-17a19.48 19.48 0 0 1-16.39-24.61 19.19 19.19 0 0 1 8.22-11L40 37.22a4.25 4.25 0 0 0 3.89 2.53h8.22A4.25 4.25 0 0 0 56 37.22l2.43-5.52a19.39 19.39 0 0 1-12.66 35.6Zm-18.4-24.88a21.35 21.35 0 0 0 0 11.19 5.6 5.6 0 0 1 0-11.19Zm14.24-12.7a20 20 0 0 1 12-.28 17.29 17.29 0 0 1 3.12 1.24l-2.51 5.71a2.26 2.26 0 0 1-2.06 1.34h-8.24a2.26 2.26 0 0 1-2.06-1.34l-2.51-5.71a16 16 0 0 1 2.26-.96Zm27.06 12.7a5.6 5.6 0 0 1 0 11.19 21.24 21.24 0 0 0 0-11.19Zm-5.85 41.88v-10.2a25.72 25.72 0 0 1 8.52 10.2ZM94 80.66a3.66 3.66 0 0 1-3.66 3.66H73.49a27.78 27.78 0 0 0-18.59-16A21.43 21.43 0 0 0 68 55.62a2.61 2.61 0 0 0 .4 0 7.6 7.6 0 0 0 1-15.14V27.64a1 1 0 0 0-2 0V39a21.41 21.41 0 0 0-38.79 0V27.64a1 1 0 0 0-2 0V40.5a7.6 7.6 0 0 0 1 15.14 3 3 0 0 0 .42 0 21.77 21.77 0 0 0 13.09 12.65 27.77 27.77 0 0 0-18.62 16H5.7A3.67 3.67 0 0 1 2 80.66V23.49h92Z"></path>
  <path d="M80.46 15.57h-.41a1 1 0 0 0 0 2h.41a1 1 0 0 0 0-2zm4.35 0h-.4a1 1 0 0 0 0 2h.4a1 1 0 0 0 0-2zm4.36 0h-.4a1 1 0 0 0 0 2h.4a1 1 0 0 0 0-2zm-57.01 0h-25a1 1 0 0 0 0 2h25a1 1 0 0 0 0-2zM40.64 48a1 1 0 0 0 2 0 3.73 3.73 0 0 0-7.44-.32 1 1 0 0 0 1 1.29 1 1 0 0 0 1-1 1.73 1.73 0 0 1 3.46 0zm13.72 1a1 1 0 0 0 1-1 1.73 1.73 0 1 1 3.46 0 1 1 0 0 0 1 1c2.06 0 .84-4.73-2.73-4.73A3.74 3.74 0 0 0 53.36 48a1 1 0 0 0 1 1zm3.73 9.34v-3.19a2.38 2.38 0 0 0-2.37-2.37H40.28a2.38 2.38 0 0 0-2.37 2.37v3.19a2.38 2.38 0 0 0 2.37 2.37h15.44a2.38 2.38 0 0 0 2.37-2.37zm-18.18 0v-3.19a.37.37 0 0 1 .37-.37h15.44a.37.37 0 0 1 .37.37v3.19a.37.37 0 0 1-.37.37H40.28a.37.37 0 0 1-.37-.37z"></path>
</svg>
